<svg width="29" height="29" viewBox="0 0 29 29" xmlns="http://www.w3.org/2000/svg"><path d="M11.804 22.696a.551.551 0 0 1-.154.362l-4.892 4.806a.546.546 0 0 1-.353.136.546.546 0 0 1-.353-.136l-4.908-4.821a.487.487 0 0 1-.107-.527.503.503 0 0 1 .46-.302h2.945V1.482A.48.48 0 0 1 4.932 1h2.945c.276 0 .491.21.491.482v20.732h2.945c.276 0 .49.211.49.482zM28 24.625v2.893a.48.48 0 0 1-.49.482H14.748a.48.48 0 0 1-.491-.482v-2.893a.48.48 0 0 1 .49-.482H27.51c.276 0 .491.21.491.482zm-2.945-7.714v2.893a.48.48 0 0 1-.49.482h-9.816a.48.48 0 0 1-.491-.482V16.91a.48.48 0 0 1 .49-.482h9.816c.277 0 .491.21.491.482zM22.11 9.196v2.893a.48.48 0 0 1-.49.482h-6.871a.48.48 0 0 1-.491-.482V9.196a.48.48 0 0 1 .49-.482h6.872c.276 0 .49.211.49.482zm-2.944-7.714v2.893a.48.48 0 0 1-.491.482h-3.926a.48.48 0 0 1-.491-.482V1.482a.48.48 0 0 1 .49-.482h3.927c.276 0 .49.21.49.482z" stroke="#DC002D" stroke-width=".964" fill="none" fill-rule="evenodd"/></svg>