<svg width="17" height="31" viewBox="0 0 17 31" xmlns="http://www.w3.org/2000/svg"><path d="M1.93 20.31a.906.906 0 0 0-.912.9c0 3.127 2.457 5.893 5.842 6.579l.728.15v1.175c0 .497.409.9.912.9a.906.906 0 0 0 .912-.9v-1.176l.726-.149c3.387-.686 5.845-3.453 5.845-6.58 0-3.72-3.357-6.746-7.483-6.746-3.12 0-5.658-2.22-5.658-4.946 0-2.727 2.538-4.945 5.658-4.945 3.12 0 5.66 2.218 5.66 4.945 0 .496.408.9.91.9a.907.907 0 0 0 .913-.9c0-3.127-2.458-5.894-5.843-6.58l-.728-.147v-.903c0-.497-.409-.9-.912-.9a.907.907 0 0 0-.912.9v.903l-.727.147c-3.386.686-5.843 3.453-5.843 6.58 0 3.72 3.357 6.745 7.482 6.745 3.12 0 5.66 2.22 5.66 4.947s-2.54 4.945-5.66 4.945-5.658-2.218-5.658-4.945c0-.496-.41-.9-.912-.9M8.5 31c-1.064 0-1.93-.846-1.93-1.886v-.377C2.759 27.929 0 24.776 0 21.209c0-1.04.866-1.885 1.93-1.885s1.93.845 1.93 1.885c0 2.183 2.08 3.959 4.64 3.959 2.56 0 4.642-1.776 4.642-3.96s-2.083-3.96-4.642-3.96c-4.687 0-8.5-3.468-8.5-7.731 0-3.566 2.759-6.719 6.57-7.528v-.102C6.57.847 7.436 0 8.5 0s1.93.846 1.93 1.887v.102C14.24 2.799 17 5.95 17 9.517c0 1.04-.865 1.886-1.93 1.886-1.064 0-1.928-.847-1.928-1.886 0-2.183-2.083-3.96-4.642-3.96-2.56 0-4.64 1.777-4.64 3.96s2.08 3.96 4.64 3.96c4.688 0 8.5 3.468 8.5 7.732 0 3.566-2.759 6.72-6.57 7.528v.377c0 1.04-.866 1.886-1.93 1.886" fill="#DB012D" fill-rule="evenodd"/></svg>