<svg width="36" height="36" viewBox="0 0 36 36" xmlns="http://www.w3.org/2000/svg"><g fill="none" fill-rule="evenodd"><path d="M17.262 14.967l-2.295 2.295-4.51 4.51-4.379-4.38L17.395 6.08l4.378 4.378-4.51 4.51zm9.668 9.94a3.738 3.738 0 0 1 2.098-.218.498.498 0 0 0 .443-.139l1.88-1.88.986.985-2.098 2.1a3.217 3.217 0 0 0-4.166.317 3.22 3.22 0 0 0-.32 4.168l-2.098 2.099-.986-.987 1.881-1.883a.502.502 0 0 0 .14-.443 3.73 3.73 0 0 1 .217-2.098.496.496 0 0 0-.108-.543l-8.77-8.77 1.587-1.586 8.77 8.77a.5.5 0 0 0 .544.108zm-.15 5.015a2.223 2.223 0 1 1 3.142 0 2.225 2.225 0 0 1-3.143 0zm5.37-2.69a.5.5 0 0 0-.139.444 3.728 3.728 0 0 1-1.026 3.31 3.728 3.728 0 0 1-3.31 1.025.5.5 0 0 0-.444.139l-1.882 1.882-.986-.986 2.098-2.1a3.219 3.219 0 0 0 4.168-.317 3.218 3.218 0 0 0 .317-4.168l2.098-2.098.988.986-1.882 1.883zM15.757 4.444l.93.928L5.37 16.686l-.928-.928L15.758 4.444zM3.737 15.05l-.93-.93L14.12 2.807l.93.93L3.736 15.05zm2.308-9.005C8.18 3.91 11.412 1.793 12.45 1.134l.964.966L2.1 13.415l-.976-.974c.575-.961 2.409-3.883 4.92-6.394zM12.261.072c-.175.107-4.278 2.623-6.922 5.266-3.144 3.144-5.19 6.786-5.276 6.94a.5.5 0 0 0 .083.596l9.959 9.958a.5.5 0 0 0 .707 0l4.51-4.51 8.544 8.544a4.707 4.707 0 0 0-.201 2.076l-2.056 2.056a.499.499 0 0 0 0 .707l3.386 3.388a.499.499 0 0 0 .707 0l2.057-2.058a4.73 4.73 0 0 0 3.933-1.342 4.728 4.728 0 0 0 1.343-3.934l2.057-2.056a.499.499 0 0 0 0-.706l-3.387-3.387a.499.499 0 0 0-.707 0l-2.056 2.055a4.74 4.74 0 0 0-2.076.2l-8.543-8.543 4.508-4.51a.497.497 0 0 0 0-.707L12.874.146a.502.502 0 0 0-.614-.073z" fill="#DC002D"/><path d="M15.258 15.258a1.666 1.666 0 0 1-2.352 0 1.666 1.666 0 0 1 0-2.352 1.666 1.666 0 0 1 2.352 0 1.666 1.666 0 0 1 0 2.351m-3.06-3.059a2.668 2.668 0 0 0 0 3.768 2.666 2.666 0 0 0 3.767-.002 2.665 2.665 0 0 0 0-3.764 2.667 2.667 0 0 0-3.766-.002" fill="#DB012D"/></g></svg>