<svg width="24" height="24" viewBox="0 0 24 24" xmlns="http://www.w3.org/2000/svg"><path d="M12 0c6.625 0 12 5.375 12 12s-5.375 12-12 12S0 18.625 0 12 5.375 0 12 0zm4.719 8.234c.11-.03.25.032.343-.03.204-.142.063-.204-.109-.25-.219-.063-.5.077-.672.187-.102.077-.173.206-.282.267.03-.09.088-.28.126-.33.094-.11.219-.172.344-.234.265-.11.531-.14.812-.188.266-.062.594-.062.797.172-.047-.047.328-.375.375-.39.14-.079.375-.047.469-.188.031-.047.031-.344.031-.344-.263.031-.358-.214-.374-.431-.001.01-.032.056-.095.119.016-.235-.28-.063-.39-.094-.36-.094-.313-.344-.422-.61-.063-.14-.235-.187-.297-.327-.063-.094-.094-.297-.234-.313-.094-.016-.266.328-.297.313-.14-.079-.203.03-.313.093-.085.057-.158.036-.241.068.225-.092-.139-.233-.281-.21.21-.062.1-.295-.025-.405h.079c-.032-.14-.47-.265-.61-.359-.14-.094-.89-.25-1.047-.156-.187.11.047.422.047.578.016.187-.187.234-.187.39 0 .266.5.22.375.579-.079.218-.375.265-.5.437-.125.156.015.438.14.547.125.094-.219.25-.265.281-.266.125-.47-.265-.532-.5-.046-.172-.062-.375-.25-.468-.093-.032-.39-.079-.453.015-.094-.234-.422-.328-.64-.406-.313-.11-.579-.11-.907-.063.11-.015-.03-.5-.296-.421.078-.157.046-.329.078-.485a.885.885 0 0 1 .187-.36c.031-.062.375-.421.266-.437.265.032.562.047.781-.172.14-.14.203-.375.344-.53.203-.235.453.062.672.077.312.016.296-.328.125-.484.203.015.03-.36-.079-.406-.14-.047-.67.093-.39.202-.065-.025-.438.75-.656.36-.063-.078-.094-.406-.235-.422-.119 0-.195.128-.243.221.07-.19-.444-.33-.554-.346.235-.156.047-.328-.125-.422-.125-.078-.515-.14-.625-.015-.296.36.313.406.47.5.046.031.233.14.124.219-.094.046-.375.124-.406.187-.094.14.11.297-.031.438-.138-.138-.14-.365-.243-.521.103.157-.57.067-.554.067-.235 0-.61.157-.781-.078-.032-.062-.032-.417.06-.345-.14-.109-.233-.218-.326-.28-.516.172-1 .39-1.469.64.063.017.11.017.188-.015.125-.047.234-.125.359-.187.156-.063.484-.25.656-.11.016-.03.063-.062.078-.078.11.125.22.25.313.39-.125-.062-.328-.03-.469-.015-.11.031-.297.063-.344.188.047.078.11.203.079.281-.204-.14-.36-.375-.641-.406-.125 0-.25 0-.344.015a10.157 10.157 0 0 0-3.672 3.47c.063.062.125.109.188.124.156.047 0 .5.297.266.093.078.109.187.046.297.016-.016.641.39.688.421.11.094.281.204.328.329.031.109-.062.234-.156.28-.016-.03-.25-.265-.281-.202-.047.078 0 .497.17.484-.248.02-.14.985-.202 1.172 0 .016.032.016.032.016-.047.187.109.921.421.843-.203.047.36.766.438.813.203.14.438.234.578.437.156.22.156.547.375.72-.062.187.328.405.313.671-.032.016-.047.016-.079.031.079.219.375.219.485.422.062.125 0 .422.203.36.031-.344-.203-.688-.375-.97-.094-.155-.188-.296-.266-.452-.078-.141-.093-.313-.156-.47.063.017.406.142.375.188-.125.313.5.86.672 1.063.047.047.406.515.219.515.203 0 .484.313.578.47.14.234.11.53.203.78.094.313.531.454.781.594.219.11.406.266.625.344.328.125.406.016.688-.031.406-.063.453.39.781.562.203.11.639.265.858.173-.088.037.33.671.36.718.141.187.407.281.563.469a.255.255 0 0 0 .107-.132c-.05.174.24.49.393.46.172-.032.219-.375.219-.5-.313.156-.594.031-.766-.282-.03-.078-.28-.515-.062-.515.297 0 .094-.235.062-.453-.03-.219-.25-.36-.359-.547-.094.187-.406.14-.5-.016 0 .047-.047.125-.047.188-.078 0-.156.015-.234-.016.031-.187.047-.422.094-.625.078-.281.593-.828-.079-.797-.234.016-.328.11-.406.313-.078.187-.047.36-.265.453-.141.062-.61.031-.75-.047-.297-.172-.5-.719-.5-1.031-.016-.422.203-.797 0-1.188.093-.078.187-.234.296-.312.094-.063.204.047.25-.14-.042-.03-.098-.083-.12-.093.238.103.67-.156.87-.002.125.094.266.125.344-.03.016-.048-.11-.235-.047-.36.047.265.219.312.453.14.094.094.344.063.516.157.172.109.203.28.406.046.125.188.14.188.188.376.047.171.14.609.297.687.328.203.25-.344.218-.531-.015-.016-.015-.531-.03-.531-.5-.11-.313-.5-.032-.766.047-.031.406-.156.562-.281.141-.125.313-.344.235-.547.078 0 .14-.063.172-.14-.046-.016-.224-.164-.263-.158.106-.062.09-.156.028-.25.156-.093.078-.265.235-.327.171.234.515-.031.343-.219.157-.219.516-.11.61-.313.234.063.062-.234.187-.406.11-.14.297-.14.438-.219 0 .016.39-.218.265-.234.266.031.797-.25.391-.484.06-.136-.127-.2-.267-.231l-.014-.004zm-2.467 9.794c.06.371.061.757.139 1.128.046.219 0 .578-.188.75-.187.172-.422.36-.453.625-.031.188.016.36.188.407.015.234-.25.406-.235.656 0 .015.016.172.031.25a9.919 9.919 0 0 0 5.485-2.953c-.094-.094-.266-.063-.39-.125-.126-.047-.22-.094-.376-.125.031-.313-.312-.422-.531-.578-.203-.157-.328-.329-.625-.266-.031.015-.344.125-.281.187-.203-.172-.297-.265-.563-.343-.25-.078-.422-.391-.672-.11-.073.074-.082.168-.09.26-.035-.13.1-.261-.004-.385-.187-.218-.515.14-.671.235-.094.078-.204.109-.266.203-.078.11-.11.25-.172.36-.04-.11-.247-.1-.31-.157l-.016-.02z" fill="#9B9B9B" fill-rule="evenodd"/></svg>