<svg width="30" height="30" viewBox="0 0 30 30" xmlns="http://www.w3.org/2000/svg"><path d="M15 16.052a4.816 4.816 0 0 1-4.81-4.81A4.816 4.816 0 0 1 15 6.432a4.816 4.816 0 0 1 4.81 4.81 4.816 4.816 0 0 1-4.81 4.81m9.807 8.718c-.092.092-.192.174-.286.263-.23.218-.459.437-.704.639-.204.169-.42.32-.632.476-.143.105-.28.219-.428.32a13.919 13.919 0 0 1-6.374 2.313c-.12.011-.244.009-.365.018-.339.025-.677.051-1.018.051-.341 0-.679-.026-1.018-.051-.121-.009-.245-.007-.365-.018a13.919 13.919 0 0 1-6.374-2.313c-.15-.102-.288-.217-.433-.324-.211-.155-.425-.305-.627-.471-.246-.204-.477-.424-.708-.644-.093-.088-.191-.168-.281-.259-.028-.028-.052-.059-.079-.087a6.91 6.91 0 0 1-.004-.25c0-3.957 2.341-7.368 5.707-8.947A5.94 5.94 0 0 0 15 17.202c1.63 0 3.105-.655 4.182-1.716 3.365 1.579 5.707 4.99 5.707 8.947 0 .084-.002.167-.004.251-.027.027-.051.058-.078.086M15 1.151c7.637 0 13.85 6.213 13.85 13.849 0 3.16-1.076 6.068-2.864 8.401a11.032 11.032 0 0 0-6.043-8.828 5.96 5.96 0 1 0-9.886 0 11.032 11.032 0 0 0-6.043 8.828A13.767 13.767 0 0 1 1.15 15C1.15 7.364 7.363 1.151 15 1.151m11.012 24.01C28.48 22.488 30 18.926 30 15c0-8.284-6.716-15-15-15C6.716 0 0 6.716 0 15c0 3.926 1.52 7.488 3.988 10.161a.162.162 0 0 1 .001.022c.054.058.115.108.17.166.21.22.428.43.651.637.14.129.278.26.423.384.231.199.471.386.714.57.152.116.302.234.459.343.249.175.507.336.767.496.165.101.326.206.495.3.265.149.54.283.814.415.176.086.349.176.528.255.282.122.572.227.862.333.184.067.364.141.55.201.302.097.612.172.922.25.185.046.366.102.554.142.339.072.686.118 1.034.167.166.023.327.057.494.075a15.16 15.16 0 0 0 3.148 0c.167-.018.329-.053.495-.076.347-.048.694-.095 1.033-.166.188-.04.369-.096.555-.143.309-.077.619-.152.92-.249.188-.06.367-.134.551-.202.29-.105.58-.21.862-.332.179-.079.352-.169.528-.255.274-.132.549-.266.814-.415.169-.094.33-.199.495-.3.26-.16.518-.321.767-.496.157-.109.307-.227.459-.342.243-.185.483-.372.714-.571.145-.124.283-.255.422-.384.224-.207.442-.417.652-.637.055-.058.116-.108.17-.166l.001-.022" fill="#DB012D" fill-rule="evenodd"/></svg>